<svg xmlns="http://www.w3.org/2000/svg" width="205" height="266" fill="none" viewBox="0 0 205 266"><circle cx="103" cy="100" r="100" fill="#000"/><circle cx="103" cy="100" r="50" fill="#fff"/><path fill="#000" d="M25.7116 232.229H31.8864C30.8572 225.662 25.1726 221.088 17.7727 221.088C9.01705 221.088 2.45028 227.524 2.45028 238.305C2.45028 248.891 8.72301 255.457 17.9524 255.457C26.2344 255.457 32.1641 250.132 32.1641 241.507V237.489H18.5895V242.226H26.2997C26.2017 246.996 23.0163 250.018 17.9851 250.018C12.3821 250.018 8.54332 245.82 8.54332 238.24C8.54332 230.71 12.4474 226.528 17.8544 226.528C21.8892 226.528 24.6335 228.684 25.7116 232.229ZM39.3352 255H45.2486V229.909H39.3352V255ZM42.3082 226.348C44.1868 226.348 45.7223 224.911 45.7223 223.146C45.7223 221.366 44.1868 219.928 42.3082 219.928C40.4134 219.928 38.8778 221.366 38.8778 223.146C38.8778 224.911 40.4134 226.348 42.3082 226.348ZM63.8585 229.909H58.9089V223.898H52.9956V229.909H49.4345V234.483H52.9956V248.433C52.9629 253.154 56.3933 255.474 60.8365 255.343C62.519 255.294 63.6788 254.967 64.3159 254.755L63.3194 250.132C62.9927 250.214 62.323 250.361 61.5879 250.361C60.1014 250.361 58.9089 249.838 58.9089 247.453V234.483H63.8585V229.909ZM87.2464 230.742H93.0781C92.9638 225.09 88.1449 221.088 81.0227 221.088C73.9986 221.088 68.7223 225.041 68.7386 230.955C68.7386 235.757 72.1527 238.518 77.6577 239.939L81.4638 240.919C85.0739 241.834 87.4588 242.961 87.4751 245.558C87.4588 248.417 84.7472 250.328 80.794 250.328C77.0043 250.328 74.0639 248.629 73.8189 245.117H67.8565C68.1016 251.766 73.0511 255.506 80.843 255.506C88.8636 255.506 93.5192 251.504 93.5355 245.607C93.5192 239.808 88.733 237.162 83.7017 235.969L80.5653 235.185C77.821 234.532 74.848 233.372 74.8807 230.579C74.897 228.063 77.1513 226.217 80.9411 226.217C84.5511 226.217 86.9361 227.9 87.2464 230.742ZM98.677 264.409H104.59V251.047H104.835C105.767 252.876 107.71 255.441 112.023 255.441C117.936 255.441 122.363 250.753 122.363 242.487C122.363 234.124 117.806 229.582 112.007 229.582C107.58 229.582 105.734 232.245 104.835 234.058H104.492V229.909H98.677V264.409ZM104.476 242.455C104.476 237.587 106.567 234.434 110.373 234.434C114.31 234.434 116.335 237.783 116.335 242.455C116.335 247.159 114.277 250.589 110.373 250.589C106.6 250.589 104.476 247.322 104.476 242.455ZM134.647 255.506C138.584 255.506 140.936 253.661 142.014 251.553H142.21V255H147.895V238.207C147.895 231.575 142.488 229.582 137.702 229.582C132.426 229.582 128.374 231.935 127.068 236.509L132.589 237.293C133.177 235.577 134.843 234.107 137.735 234.107C140.479 234.107 141.982 235.512 141.982 237.979V238.077C141.982 239.776 140.201 239.857 135.774 240.331C130.906 240.854 126.251 242.308 126.251 247.96C126.251 252.893 129.861 255.506 134.647 255.506ZM136.183 251.161C133.716 251.161 131.952 250.034 131.952 247.862C131.952 245.591 133.928 244.643 136.575 244.268C138.127 244.055 141.23 243.663 141.998 243.043V245.999C141.998 248.793 139.744 251.161 136.183 251.161ZM164.786 255.49C171.091 255.49 175.11 251.749 175.534 246.424H169.882C169.376 249.119 167.432 250.671 164.835 250.671C161.143 250.671 158.758 247.584 158.758 242.455C158.758 237.391 161.192 234.352 164.835 234.352C167.677 234.352 169.425 236.182 169.882 238.599H175.534C175.126 233.16 170.879 229.582 164.753 229.582C157.402 229.582 152.763 234.891 152.763 242.553C152.763 250.148 157.288 255.49 164.786 255.49ZM191.498 255.49C197.346 255.49 201.364 252.631 202.41 248.27L196.888 247.649C196.088 249.773 194.128 250.884 191.58 250.884C187.757 250.884 185.225 248.368 185.176 244.072H202.655V242.259C202.655 233.454 197.362 229.582 191.188 229.582C184 229.582 179.312 234.859 179.312 242.602C179.312 250.475 183.935 255.49 191.498 255.49ZM185.192 240.086C185.372 236.884 187.741 234.189 191.269 234.189C194.667 234.189 196.954 236.672 196.987 240.086H185.192Z"/></svg>