<svg xmlns="http://www.w3.org/2000/svg" width="365" height="140" fill="none" viewBox="0 0 365 140"><circle cx="70" cy="70" r="70" fill="#000"/><circle cx="70" cy="70" r="35" fill="#fff"/><path fill="#000" d="M185.712 64.2287H191.886C190.857 57.6619 185.173 53.0881 177.773 53.0881C169.017 53.0881 162.45 59.5241 162.45 70.3054C162.45 80.8906 168.723 87.4574 177.952 87.4574C186.234 87.4574 192.164 82.1321 192.164 73.5071V69.4886H178.589V74.2259H186.3C186.202 78.9957 183.016 82.0178 177.985 82.0178C172.382 82.0178 168.543 77.8196 168.543 70.2401C168.543 62.7095 172.447 58.5277 177.854 58.5277C181.889 58.5277 184.634 60.6839 185.712 64.2287ZM199.335 87H205.249V61.9091H199.335V87ZM202.308 58.348C204.187 58.348 205.722 56.9105 205.722 55.1463C205.722 53.3658 204.187 51.9283 202.308 51.9283C200.413 51.9283 198.878 53.3658 198.878 55.1463C198.878 56.9105 200.413 58.348 202.308 58.348ZM223.858 61.9091H218.909V55.8977H212.996V61.9091H209.434V66.483H212.996V80.4332C212.963 85.1541 216.393 87.4737 220.836 87.343C222.519 87.294 223.679 86.9673 224.316 86.755L223.319 82.1321C222.993 82.2138 222.323 82.3608 221.588 82.3608C220.101 82.3608 218.909 81.8381 218.909 79.4531V66.483H223.858V61.9091ZM247.246 62.7422H253.078C252.964 57.0902 248.145 53.0881 241.023 53.0881C233.999 53.0881 228.722 57.0412 228.739 62.9545C228.739 67.7571 232.153 70.5178 237.658 71.9389L241.464 72.919C245.074 73.8338 247.459 74.9609 247.475 77.5582C247.459 80.4169 244.747 82.3281 240.794 82.3281C237.004 82.3281 234.064 80.6293 233.819 77.1172H227.857C228.102 83.7656 233.051 87.5064 240.843 87.5064C248.864 87.5064 253.519 83.5043 253.536 77.6072C253.519 71.8082 248.733 69.1619 243.702 67.9695L240.565 67.1854C237.821 66.532 234.848 65.3722 234.881 62.5788C234.897 60.0632 237.151 58.2173 240.941 58.2173C244.551 58.2173 246.936 59.8999 247.246 62.7422ZM258.677 96.4091H264.59V83.0469H264.835C265.767 84.8764 267.71 87.4411 272.023 87.4411C277.936 87.4411 282.363 82.7528 282.363 74.4872C282.363 66.1236 277.806 61.5824 272.007 61.5824C267.58 61.5824 265.734 64.245 264.835 66.0582H264.492V61.9091H258.677V96.4091ZM264.476 74.4545C264.476 69.5866 266.567 66.4339 270.373 66.4339C274.31 66.4339 276.335 69.7827 276.335 74.4545C276.335 79.1591 274.277 82.5895 270.373 82.5895C266.6 82.5895 264.476 79.3224 264.476 74.4545ZM294.647 87.5064C298.584 87.5064 300.936 85.6605 302.014 83.5533H302.21V87H307.895V70.2074C307.895 63.5753 302.488 61.5824 297.702 61.5824C292.426 61.5824 288.374 63.9347 287.068 68.5085L292.589 69.2926C293.177 67.5774 294.843 66.1072 297.735 66.1072C300.479 66.1072 301.982 67.5121 301.982 69.9787V70.0767C301.982 71.7756 300.201 71.8572 295.774 72.331C290.906 72.8537 286.251 74.3075 286.251 79.9595C286.251 84.8928 289.861 87.5064 294.647 87.5064ZM296.183 83.1612C293.716 83.1612 291.952 82.0341 291.952 79.8615C291.952 77.5909 293.928 76.6435 296.575 76.2678C298.127 76.0554 301.23 75.6634 301.998 75.0426V77.9993C301.998 80.7926 299.744 83.1612 296.183 83.1612ZM324.786 87.4901C331.091 87.4901 335.11 83.7493 335.534 78.424H329.882C329.376 81.1193 327.432 82.6712 324.835 82.6712C321.143 82.6712 318.758 79.5838 318.758 74.4545C318.758 69.3906 321.192 66.3523 324.835 66.3523C327.677 66.3523 329.425 68.1818 329.882 70.5994H335.534C335.126 65.1598 330.879 61.5824 324.753 61.5824C317.402 61.5824 312.763 66.8913 312.763 74.5526C312.763 82.1484 317.288 87.4901 324.786 87.4901ZM351.498 87.4901C357.346 87.4901 361.364 84.6314 362.41 80.2699L356.888 79.6491C356.088 81.7727 354.128 82.8835 351.58 82.8835C347.757 82.8835 345.225 80.3679 345.176 76.0717H362.655V74.2585C362.655 65.4538 357.362 61.5824 351.188 61.5824C344 61.5824 339.312 66.8587 339.312 74.6016C339.312 82.4751 343.935 87.4901 351.498 87.4901ZM345.192 72.0859C345.372 68.8842 347.741 66.1889 351.269 66.1889C354.667 66.1889 356.954 68.6719 356.987 72.0859H345.192Z"/></svg>